<svg width="32" height="32" viewBox="0 0 32 32" fill="none" xmlns="http://www.w3.org/2000/svg">
<path d="M26.6667 26.6666C24.8133 26.6666 22.96 26.0399 21.3333 24.8933C18.08 27.1733 13.92 27.1733 10.6667 24.8933C9.04 26.0399 7.18667 26.6666 5.33334 26.6666H2.66667V29.3333H5.33334C7.16 29.3333 8.98667 28.8666 10.6667 27.9999C14 29.7333 18 29.7333 21.3333 27.9999C23.0133 28.8666 24.8267 29.3333 26.6667 29.3333H29.3333V26.6666H26.6667ZM27.7067 25.3333H26.6667C25.0933 25.3333 23.52 24.7999 22.1067 23.7999L21.3333 23.2666L20.56 23.7999C19.1867 24.7599 17.6133 25.2666 16 25.2666C14.36 25.2666 12.7867 24.7599 11.4133 23.7999L10.6667 23.2666L9.90667 23.7999C8.48 24.7999 6.90667 25.3333 5.33334 25.3333H4.29334C5.00001 23.3866 7.44 19.9999 16 19.9999C18.6667 19.9999 20 20.3199 20 20.3199C20.9067 18.4933 22.44 14.3599 21.3333 9.09326L22.7467 10.0399C23.1867 11.9466 24 15.6666 22.4 20.8666C25.9067 21.9999 27.2267 23.9999 27.7067 25.3333ZM29.3333 10.1199C28.28 8.66659 26.6667 7.61326 24.7733 7.37326C24.9333 7.55993 25.08 7.77326 25.2267 7.99993C25.9864 9.21319 26.338 10.6377 26.2301 12.0652C26.1221 13.4926 25.5603 14.8481 24.6267 15.9333C25.4133 13.9999 25.3333 11.7199 24.1067 9.81326C24 9.70659 23.9467 9.59993 23.8667 9.47993C23.3333 8.70659 22.6133 8.07993 21.84 7.62659C19.1333 8.49326 17.1733 11.0266 17.1733 13.9999C17.1733 14.7066 17.28 15.3733 17.4667 15.9999C16.6667 14.8933 16.2133 13.5599 16.2133 12.0933C16.2133 9.87992 17.28 7.93326 18.9333 6.70659C17.5467 6.59993 16.12 6.90659 14.8533 7.70659C14.2667 8.06659 13.76 8.50659 13.3333 9.01326C13.8533 7.75993 14.7333 6.66659 16 5.86659C17.3388 5.00547 18.9482 4.66841 20.52 4.91993C20.1226 4.36885 19.6464 3.87917 19.1067 3.46659C18.56 3.05326 17.96 2.73326 17.3333 2.50659C18.6667 2.54659 20.0533 2.98659 21.2133 3.85326C21.8 4.29326 22.2667 4.82659 22.6667 5.39993C22.7467 5.39993 22.8267 5.38659 22.92 5.38659C24.3547 5.38583 25.7518 5.84516 26.9061 6.69712C28.0605 7.54907 28.9112 8.74875 29.3333 10.1199Z" fill="#7B7B7B"/>
</svg>
