<svg width="24" height="24" viewBox="0 0 24 24" fill="none" xmlns="http://www.w3.org/2000/svg">
<g clip-path="url(#clip0_152_430)">
<path d="M0 0C7.92 0 15.84 0 24 0C24 7.92 24 15.84 24 24C16.08 24 8.16 24 0 24C0 16.08 0 8.16 0 0Z" fill="#7B7B7B"/>
<path d="M7.84315 0C13.1749 0 18.5067 0 24 0C24 6.04703 24 12.0941 24 18.3243C23.9482 18.3243 23.8965 18.3243 23.8431 18.3243C23.8201 18.2242 23.797 18.1241 23.7733 18.0209C23.3745 16.4643 22.6449 15.182 21.3333 14.2703C20.9711 14.0772 20.619 13.9295 20.2353 13.7838C20.2612 13.6232 20.2871 13.4627 20.3137 13.2973C20.4298 12.4347 20.4822 11.6614 20.2378 10.8199C20.0221 10.0027 20.0167 9.21401 19.9908 8.37099C19.9179 7.75258 19.7505 7.3467 19.451 6.81081C19.5379 6.78134 19.6249 6.75186 19.7145 6.72149C19.8281 6.68073 19.9418 6.63997 20.0588 6.59797C20.1717 6.55846 20.2845 6.51896 20.4007 6.47825C20.7592 6.33027 20.7592 6.33027 21.0196 5.83784C21.0808 5.48455 21.0808 5.48455 21.0784 5.10811C21.0829 4.98269 21.0873 4.85726 21.0919 4.72804C21.0458 4.35974 21.0458 4.35974 20.7684 4.09649C20.2803 3.83103 19.8824 3.80879 19.3333 3.78041C19.1497 3.76974 18.9661 3.75908 18.777 3.7481C18.637 3.74204 18.4971 3.73598 18.353 3.72973C18.3489 3.61413 18.3449 3.49853 18.3407 3.37943C18.2817 2.34994 18.2064 1.62231 17.5686 0.810811C16.497 0.23734 15.4514 0.244093 14.2602 0.251993C13.9407 0.253381 13.6216 0.248685 13.3021 0.24356C12.9967 0.243717 12.9967 0.243717 12.6851 0.243877C12.5008 0.243576 12.3166 0.243276 12.1268 0.242966C11.3554 0.363911 10.8548 0.722917 10.3793 1.35494C10.1656 1.85519 10.1172 2.26253 10.0882 2.80743C10.0721 3.11179 10.0559 3.41615 10.0392 3.72973C9.31452 3.72973 8.58981 3.72973 7.84315 3.72973C7.05363 2.23669 7.05363 2.23669 7.07415 1.72994C7.27083 1.12877 7.56861 0.567621 7.84315 0Z" fill="#FCFCFC"/>
<path d="M0 9.56763C0.253853 9.96127 0.398853 10.2452 0.551471 10.6787C0.595172 10.8021 0.638874 10.9255 0.6839 11.0526C0.729978 11.1847 0.776055 11.3167 0.823529 11.4528C0.871831 11.5889 0.920133 11.725 0.969899 11.8653C1.21053 12.5465 1.44421 13.2293 1.66544 13.9175C1.70543 14.0402 1.74541 14.1629 1.78661 14.2893C1.86126 14.5197 1.93419 14.7507 2.00506 14.9824C2.32705 15.9724 2.75395 16.6438 3.64461 17.1576C4.33006 17.3825 4.97246 17.4721 5.68627 17.5338C5.9355 17.5575 6.18468 17.5815 6.43382 17.6061C6.54266 17.6157 6.6515 17.6253 6.76363 17.6353C7.05882 17.6757 7.05882 17.6757 7.52941 17.8379C7.52941 19.8714 7.52941 21.9049 7.52941 24.0001C5.04471 24.0001 2.56 24.0001 0 24.0001C0 19.2374 0 14.4747 0 9.56763Z" fill="#FCFCFC"/>
<path d="M8.47058 14.2703C8.8847 14.2703 9.29882 14.2703 9.72548 14.2703C9.77725 15.6081 9.82901 16.9459 9.88235 18.3243C10.0894 18.3243 10.2965 18.3243 10.5098 18.3243C10.5616 17.5751 10.6133 16.8259 10.6667 16.054C11.0484 16.4487 11.2851 16.7531 11.5588 17.2196C11.6274 17.3356 11.6959 17.4516 11.7665 17.5712C11.8177 17.6592 11.8689 17.7472 11.9216 17.8378C12.5988 17.761 12.9155 17.3458 13.3725 16.8547C13.5125 16.7057 13.6524 16.5566 13.7966 16.4031C13.9555 16.2303 13.9555 16.2303 14.1176 16.054C14.774 16.6231 15.4033 17.2023 16 17.8378C16.5454 17.6094 16.7604 17.3698 17.049 16.8446C17.1666 16.6331 17.2866 16.423 17.4118 16.2162C17.4635 16.2162 17.5153 16.2162 17.5686 16.2162C17.5686 17.554 17.5686 18.8919 17.5686 20.2703C16.6369 20.3505 16.6369 20.3505 15.6863 20.4324C15.6863 20.6465 15.6863 20.8605 15.6863 21.0811C16.3592 21.1346 17.0322 21.1881 17.7255 21.2432C17.7255 21.9924 17.7255 22.7416 17.7255 23.5135C15.3961 23.5135 13.0667 23.5135 10.6667 23.5135C10.6149 23.0319 10.5631 22.5503 10.5098 22.054C10.3027 22.1611 10.0957 22.2681 9.88235 22.3784C9.75392 22.956 9.75392 22.956 9.72548 23.5135C9.31137 23.5135 8.89725 23.5135 8.47058 23.5135C8.47058 20.4632 8.47058 17.413 8.47058 14.2703Z" fill="#FAFAFA"/>
<path d="M2.35294 4.37842C3.95764 4.37842 5.56235 4.37842 7.21568 4.37842C7.21568 4.80653 7.21568 5.23463 7.21568 5.67572C7.22606 6.05328 7.22606 6.05328 7.37254 6.32436C7.69887 6.50883 7.69887 6.50883 8.08823 6.60815C8.21784 6.64745 8.34746 6.68675 8.481 6.72724C8.58109 6.75483 8.68118 6.78242 8.78431 6.81085C8.49019 7.58112 8.49019 7.58112 8.31372 7.94599C8.30883 8.51527 8.32434 9.08277 8.33884 9.65186C8.31404 10.2091 8.2024 10.5202 7.99999 11.0271C7.95555 11.4211 7.92344 11.8168 7.90196 12.2129C7.87284 12.7497 7.87284 12.7497 7.84313 13.2973C7.06666 13.2973 6.29019 13.2973 5.49019 13.2973C5.14351 12.408 4.80244 11.517 4.47058 10.6217C4.40446 10.4448 4.33834 10.268 4.27022 10.0858C4.14776 9.75492 4.0278 9.42307 3.91115 9.08999C3.85958 8.94659 3.80802 8.80319 3.7549 8.65544C3.71102 8.5296 3.66714 8.40376 3.62193 8.27411C3.32519 7.70456 2.93421 7.49764 2.35294 7.29734C2.35294 6.33409 2.35294 5.37085 2.35294 4.37842Z" fill="#FBFBFB"/>
<path d="M11.1373 6.81079C13.1561 6.81079 15.1749 6.81079 17.2549 6.81079C17.2549 9.56033 17.2549 9.56033 16.595 10.4208C16.1681 10.8487 15.7558 11.0936 15.2157 11.3513C15.1122 11.4048 15.0086 11.4584 14.902 11.5135C13.8822 11.6469 13.0772 11.4806 12.2353 10.8648C11.616 10.2864 11.4077 9.75759 11.1373 8.9189C11.1373 8.22322 11.1373 7.52755 11.1373 6.81079Z" fill="#FAFAFA"/>
<path d="M3.60785 10.5406C3.77739 10.8141 3.77739 10.8141 3.90381 11.1665C3.95062 11.294 3.99743 11.4215 4.04566 11.5529C4.09206 11.6871 4.13847 11.8213 4.18628 11.9596C4.25862 12.1571 4.25862 12.1571 4.33242 12.3586C4.56473 13.004 4.73092 13.5889 4.86275 14.2704C5.74275 14.2704 6.62275 14.2704 7.52942 14.2704C7.52942 15.1266 7.52942 15.9828 7.52942 16.865C4.76097 16.9491 4.76097 16.9491 3.67096 16.2968C3.14651 15.7334 2.92049 15.1233 2.64707 14.4021C2.59469 14.2703 2.54232 14.1385 2.48836 14.0027C1.56863 11.6593 1.56863 11.6593 1.56863 11.0271C1.78975 10.9133 2.01225 10.8024 2.2353 10.6927C2.35905 10.6306 2.4828 10.5685 2.6103 10.5045C3.03708 10.3592 3.19529 10.3697 3.60785 10.5406Z" fill="#F6F6F6"/>
<path d="M20.7059 15.0811C21.4477 15.3878 21.6102 15.4666 22.0588 16.0743C22.1482 16.1918 22.2376 16.3093 22.3296 16.4303C23.1934 17.8819 23.1151 19.2732 23.0882 20.9189C23.0859 21.1708 23.0837 21.4227 23.0818 21.6746C23.077 22.2877 23.0678 22.9004 23.0588 23.5135C22.2823 23.5135 21.5059 23.5135 20.7059 23.5135C20.7059 20.7308 20.7059 17.9481 20.7059 15.0811Z" fill="#F2F2F2"/>
<path d="M13.8347 1.05722C14.1744 1.05407 14.5134 1.04401 14.8529 1.03378C15.0698 1.03167 15.2867 1.02996 15.5037 1.02872C15.7003 1.02569 15.8969 1.02265 16.0995 1.01953C16.837 1.18102 16.9914 1.47441 17.4118 2.10811C17.5686 2.43243 17.5686 2.43243 17.5686 3.72973C15.3427 3.72973 13.1169 3.72973 10.8235 3.72973C10.8235 2.05405 10.8235 2.05405 11.2941 1.45946C12.0557 0.934607 12.9432 1.06223 13.8347 1.05722Z" fill="#F3F3F3"/>
<path d="M9.07636 4.51667C9.23979 4.51678 9.23979 4.51678 9.40652 4.51689C9.52078 4.51634 9.63505 4.5158 9.75278 4.51524C10.1324 4.51369 10.512 4.51338 10.8915 4.51321C11.1543 4.51269 11.4171 4.51214 11.6799 4.51157C12.2315 4.5106 12.7831 4.5103 13.3348 4.5104C14.0428 4.51041 14.7509 4.5082 15.459 4.50541C16.002 4.50361 16.545 4.50327 17.0879 4.50336C17.349 4.50317 17.6102 4.50245 17.8713 4.5012C18.236 4.49962 18.6006 4.50007 18.9653 4.50105C19.074 4.50014 19.1826 4.49923 19.2945 4.49829C20.0426 4.50342 20.0426 4.50342 20.3922 4.86477C20.305 5.60351 20.305 5.60351 20.0784 5.83774C19.7127 5.85486 19.3515 5.86155 18.9856 5.8613C18.8714 5.86184 18.7571 5.86239 18.6394 5.86295C18.2598 5.8645 17.8802 5.86481 17.5006 5.86498C17.2378 5.8655 16.975 5.86605 16.7122 5.86662C16.1606 5.86759 15.609 5.86789 15.0574 5.86779C14.3493 5.86777 13.6412 5.86999 12.9331 5.87278C12.3902 5.87458 11.8472 5.87491 11.3042 5.87483C11.0431 5.87502 10.782 5.87574 10.5209 5.87699C10.1562 5.87857 9.79152 5.87811 9.42682 5.87713C9.31818 5.87805 9.20955 5.87896 9.09762 5.8799C8.34954 5.87477 8.34954 5.87477 8 5.51342C8.10629 4.61237 8.2109 4.52273 9.07636 4.51667Z" fill="#EBEBEB"/>
<path d="M18.5098 14.2703C18.9757 14.3238 19.4416 14.3773 19.9216 14.4324C19.9216 17.4292 19.9216 20.4259 19.9216 23.5135C19.4557 23.5135 18.9898 23.5135 18.5098 23.5135C18.5098 20.4632 18.5098 17.413 18.5098 14.2703Z" fill="#EDEDED"/>
<path d="M2.35294 0.324219C3.80235 0.324219 5.25176 0.324219 6.74509 0.324219C6.43137 1.13503 6.43137 1.13503 6.11764 1.62152C6.17267 2.19042 6.46356 2.60012 6.74509 3.08098C6.74509 3.188 6.74509 3.29503 6.74509 3.4053C5.29568 3.4053 3.84627 3.4053 2.35294 3.4053C2.35294 2.38854 2.35294 1.37179 2.35294 0.324219Z" fill="#F2F2F2"/>
<path d="M10.1961 6.9729C10.2021 7.19333 10.2021 7.19333 10.2083 7.41821C10.2789 9.15679 10.2789 9.15679 10.9804 10.7026C11.3031 10.9941 11.6247 11.255 11.9828 11.4982C12.2353 11.8378 12.2353 11.8378 12.2353 13.2972C11.1482 13.2972 10.0612 13.2972 8.94118 13.2972C8.66203 12.7201 8.58146 12.5303 8.57843 11.929C8.5758 11.8088 8.57317 11.6886 8.57047 11.5647C8.62745 11.1891 8.62745 11.1891 8.86642 10.8078C9.16635 10.2516 9.12466 9.88395 9.08823 9.25331C9.05916 8.00679 9.05916 8.00679 9.39216 7.48979C9.87787 6.9729 9.87787 6.9729 10.1961 6.9729Z" fill="#F5F5F5"/>
<path d="M18.1961 7.13525C18.722 7.39476 19.0212 7.55812 19.2941 8.10823C19.354 8.70854 19.3819 9.31369 19.1838 9.88694C19.0992 10.2426 19.0992 10.2426 19.3603 10.5996C19.66 11.1172 19.6614 11.4327 19.6471 12.0305C19.6446 12.2001 19.6422 12.3696 19.6397 12.5442C19.6078 12.9731 19.6078 12.9731 19.451 13.2974C18.3122 13.2974 17.1733 13.2974 16 13.2974C16 12.8158 16 12.3342 16 11.838C16.4902 11.4528 16.4902 11.4528 16.7917 11.2666C17.5846 10.6469 17.975 9.6467 18.1324 8.65869C18.171 8.14928 18.1945 7.64612 18.1961 7.13525Z" fill="#F7F7F7"/>
<path d="M7.84315 -6.10352e-05C9.06608 -0.00826259 10.289 -0.0139553 11.512 -0.0178767C11.9283 -0.0195109 12.3446 -0.0217264 12.7609 -0.0245279C13.3582 -0.0284475 13.9554 -0.0302987 14.5527 -0.0317333C14.8333 -0.0342442 14.8333 -0.0342442 15.1197 -0.0368058C15.2924 -0.0368303 15.4651 -0.0368548 15.643 -0.0368801C15.8719 -0.0379604 15.8719 -0.0379604 16.1053 -0.0390625C16.4706 -6.10352e-05 16.4706 -6.10352e-05 16.7843 0.324263C16.6324 0.320866 16.4806 0.31747 16.3241 0.31397C15.7575 0.302179 15.191 0.294764 14.6244 0.288632C14.3797 0.285381 14.1351 0.280963 13.8905 0.27533C13.5377 0.267411 13.185 0.263771 12.8321 0.260919C12.7237 0.257571 12.6154 0.254223 12.5037 0.250774C11.7132 0.2504 11.2762 0.463704 10.6667 0.972912C10.2157 1.57234 10.1281 2.05694 10.0882 2.80737C10.0721 3.11173 10.0559 3.41609 10.0392 3.72967C9.31452 3.72967 8.58981 3.72967 7.84315 3.72967C7.05363 2.23663 7.05363 2.23663 7.07415 1.72988C7.20309 1.33576 7.35669 0.991772 7.53827 0.621547C7.59523 0.505046 7.65218 0.388544 7.71087 0.268513C7.75452 0.179883 7.79817 0.091254 7.84315 -6.10352e-05Z" fill="#F2F2F2"/>
<path d="M0 0C0.465882 0 0.931765 0 1.41176 0C1.43503 1.02735 1.45211 2.05454 1.46347 3.08211C1.4682 3.43164 1.47462 3.78116 1.48277 4.13062C1.49418 4.63302 1.49952 5.13516 1.50368 5.63767C1.50853 5.79394 1.51339 5.95021 1.5184 6.11122C1.5186 6.52856 1.51012 6.89244 1.41176 7.2973C0.964844 7.68481 0.964844 7.68481 0.470588 7.94595C0.315294 8.16 0.16 8.37405 0 8.59459C0 5.75838 0 2.92216 0 0Z" fill="#FCFCFC"/>
<path d="M10.8235 14.2704C12.3257 14.0963 12.3257 14.0963 12.8731 14.5231C13.1027 14.8073 13.305 15.0889 13.4902 15.4055C13.3349 15.6463 13.3349 15.6463 13.1765 15.892C13.0729 15.892 12.9694 15.892 12.8627 15.892C12.8207 15.9957 12.7786 16.0994 12.7353 16.2062C12.549 16.5407 12.549 16.5407 12.0784 16.7028C11.8684 16.3588 11.6594 16.0141 11.451 15.669C11.3911 15.5712 11.3313 15.4734 11.2696 15.3726C10.8235 14.6315 10.8235 14.6315 10.8235 14.2704Z" fill="#F1F1F1"/>
<path d="M17.5686 14.2703C17.4262 14.5548 17.2821 14.8384 17.1372 15.1216C17.0572 15.2797 16.9771 15.4377 16.8946 15.6005C16.6356 16.0403 16.3663 16.357 16 16.7027C15.6376 16.3281 15.2753 15.9535 14.9019 15.5676C15.5725 14.1812 16.1464 14.179 17.5686 14.2703Z" fill="#F7F7F7"/>
<path d="M13.1765 12.3242C13.7976 12.3242 14.4188 12.3242 15.0588 12.3242C15.1553 13.6614 15.1553 13.6614 14.6667 14.2803C14.5372 14.384 14.4078 14.4877 14.2745 14.5945C13.8212 14.3844 13.4885 14.187 13.1765 13.7837C13.1145 13.2892 13.1554 12.8251 13.1765 12.3242Z" fill="#F1F1F1"/>
<path d="M2.35293 8.10803C2.71568 8.3006 2.71568 8.3006 2.98038 8.59452C3.04056 8.86303 3.09376 9.1334 3.13725 9.40533C2.88622 9.54166 2.63444 9.67652 2.38234 9.81074C2.24222 9.88599 2.10209 9.96124 1.95771 10.0388C1.56862 10.2161 1.56862 10.2161 1.09803 10.2161C0.875669 8.91999 0.875669 8.91999 1.10783 8.34114C1.54551 8.00545 1.82044 8.02939 2.35293 8.10803Z" fill="#EFEFEF"/>
<path d="M13.4902 9.08105C13.9043 9.08105 14.3184 9.08105 14.7451 9.08105C14.7969 9.34862 14.8486 9.61619 14.902 9.89187C14.4686 10.1159 14.1259 10.085 13.6471 10.054C13.5435 9.947 13.44 9.83997 13.3333 9.7297C13.3922 9.38511 13.3922 9.38511 13.4902 9.08105Z" fill="#7B7B7B"/>
<path d="M9.88236 19.946C10.1412 19.9996 10.4 20.0531 10.6667 20.1082C10.6149 20.3223 10.5631 20.5363 10.5098 20.7569C10.251 20.7033 9.99216 20.6498 9.72549 20.5947C9.77726 20.3806 9.82902 20.1666 9.88236 19.946Z" fill="#7B7B7B"/>
</g>
<defs>
<clipPath id="clip0_152_430">
<rect width="24" height="24" fill="white"/>
</clipPath>
</defs>
</svg>
