<svg width="94" height="74" viewBox="0 0 94 74" fill="none" xmlns="http://www.w3.org/2000/svg">
<path d="M61.3792 18.7495L57.7615 22.379C58.2589 23.6702 58.5321 25.0738 58.5321 26.5408C58.5321 32.9317 53.3685 38.1106 47 38.1106C40.6315 38.1106 35.4679 32.9301 35.4679 26.5408C35.4679 25.1103 35.7285 23.7415 36.2006 22.4772L32.5734 18.8382C31.3528 21.1354 30.658 23.7557 30.658 26.5408C30.658 35.5964 37.9755 42.9362 47 42.9362C56.0245 42.9362 63.342 35.5948 63.342 26.5408C63.342 23.7193 62.6298 21.0673 61.3792 18.7495Z" fill="#F37021"/>
<path d="M47 14.9711C48.3517 14.9711 49.6497 15.2071 50.8545 15.6365L54.5022 11.9769C52.2552 10.8093 49.705 10.1455 47 10.1455C44.295 10.1455 41.6658 10.8283 39.3935 12.0307L43.027 15.6761C44.265 15.2198 45.6041 14.9711 47 14.9711Z" fill="#F37021"/>
<path d="M66.7165 10.1962C65.6917 8.95414 64.5531 7.81032 63.3167 6.78056L59.8775 10.231L46.9463 23.2044L34.0625 10.2786L30.6248 6.82967C29.3916 7.8626 28.2546 9.00959 27.2345 10.2548C23.6026 14.6859 21.4219 20.3575 21.4219 26.5424C21.4219 34.4335 24.9733 41.4929 30.5601 46.1997L33.9962 42.7524C29.2795 38.9375 26.2602 33.0948 26.2602 26.5424C26.2602 21.6994 27.912 17.2429 30.677 13.7069L46.9353 30.0182L46.9479 30.0293L63.2772 13.6467C66.0706 17.1922 67.7413 21.6709 67.7413 26.5408C67.7413 33.1487 64.67 39.0373 59.8822 42.849L63.3215 46.2995C68.9762 41.5927 72.5797 34.489 72.5797 26.5408C72.5797 20.329 70.3784 14.6352 66.7181 10.1962H66.7165Z" fill="#288DCC"/>
<path d="M4.69305 60.8223C4.69305 59.0336 5.301 57.5207 6.51848 56.2818C7.73596 55.0429 9.23609 54.4251 11.0189 54.4251C12.8017 54.4251 14.2876 55.0382 15.5098 56.266C16.732 57.4922 17.3447 59.0115 17.3447 60.8238C17.3447 62.6362 16.7383 64.1539 15.5272 65.3817C14.316 66.6079 12.8127 67.2226 11.0189 67.2226C9.22504 67.2226 7.72175 66.6095 6.51059 65.3817C5.29942 64.1555 4.69305 62.6362 4.69305 60.8238V60.8223ZM7.68385 57.3401C6.79798 58.2637 6.35583 59.4234 6.35583 60.8223C6.35583 62.2211 6.79798 63.3824 7.68385 64.3044C8.56972 65.228 9.68139 65.6891 11.0173 65.6891C12.3532 65.6891 13.4633 65.228 14.3429 64.3044C15.2224 63.3824 15.663 62.2211 15.663 60.8223C15.663 59.4234 15.2224 58.2621 14.3429 57.3401C13.4633 56.4181 12.3548 55.9555 11.0173 55.9555C9.67982 55.9555 8.56814 56.4165 7.68385 57.3401Z" fill="#F37021"/>
<path d="M26.9993 61.2864L21.4109 54.4251H21.3935V67.0135H22.9884V58.7247L23.3137 59.1192L26.9993 63.6089L30.7022 59.1192L31.0275 58.7247V67.0135H32.6224V54.4251H32.605L26.9993 61.2864Z" fill="#288DCC"/>
<path d="M40.6268 54.4251L34.9358 67.0135H36.6838L37.8839 64.2617H43.387L44.6045 67.0135H46.3526L40.6615 54.4251H40.6268ZM38.484 62.9024C39.3525 60.9427 40.0725 59.2333 40.6442 57.7773C41.1811 59.1873 41.8948 60.8967 42.787 62.9024H38.484Z" fill="#288DCC"/>
<path d="M56.2677 60.6496C56.754 60.0412 56.9956 59.2966 56.9956 58.4142C56.9956 57.2339 56.6135 56.3072 55.8476 55.637C55.0818 54.9669 54.019 54.631 52.6594 54.631H48.6659V67.0135H50.3113V62.1641H52.8821L55.4355 67.0135H57.2704L54.477 61.8885C55.186 61.6714 55.7829 61.2579 56.2677 60.6496ZM52.7447 60.8048H50.3113V56.0236H52.6089C53.4664 56.0236 54.1375 56.2359 54.6238 56.6604C55.1086 57.085 55.3518 57.6696 55.3518 58.4142C55.3518 59.1588 55.1212 59.745 54.657 60.168C54.1943 60.5925 53.5564 60.8048 52.7463 60.8048H52.7447Z" fill="#288DCC"/>
<path d="M61.9161 54.631H60.2707V67.0135H61.9161V54.631Z" fill="#288DCC"/>
<path d="M73.9314 63.1955L73.5382 62.7661L65.8749 54.4251H65.8575V67.0135H67.5029V58.4491L67.8977 58.8784L75.5594 67.2194H75.5768V54.631H73.9314V63.1955Z" fill="#288DCC"/>
<path d="M83.6159 54.4251H83.5812L77.8901 67.0135H79.6382L80.8383 64.2617H86.3414L87.5589 67.0135H89.3069L83.6159 54.4251ZM81.4399 62.9024C82.3084 60.9427 83.0285 59.2333 83.6001 57.7773C84.137 59.1873 84.8508 60.8967 85.7429 62.9024H81.4399Z" fill="#288DCC"/>
</svg>
