<svg width="32" height="32" viewBox="0 0 32 32" fill="none" xmlns="http://www.w3.org/2000/svg">
<path d="M5.33332 28C4.59999 28 3.97243 27.7391 3.45066 27.2173C2.92888 26.6956 2.66755 26.0676 2.66666 25.3333V21.3333H29.3333V25.3333C29.3333 26.0667 29.0724 26.6947 28.5507 27.2173C28.0289 27.74 27.4009 28.0009 26.6667 28H5.33332ZM16 18C15.2 18 14.5667 18.2222 14.1 18.6667C13.6333 19.1111 12.7778 19.3333 11.5333 19.3333C10.2889 19.3333 9.44443 19.1111 8.99999 18.6667C8.55555 18.2222 7.93332 18 7.13332 18C6.33332 18 5.69999 18.2222 5.23332 18.6667C4.76666 19.1111 3.9111 19.3333 2.66666 19.3333V16.6667C3.46666 16.6667 4.09999 16.4444 4.56666 16C5.03332 15.5556 5.88888 15.3333 7.13332 15.3333C8.37777 15.3333 9.22221 15.5556 9.66666 16C10.1111 16.4444 10.7333 16.6667 11.5333 16.6667C12.3333 16.6667 12.9667 16.4444 13.4333 16C13.9 15.5556 14.7555 15.3333 16 15.3333C17.2444 15.3333 18.1 15.5556 18.5667 16C19.0333 16.4444 19.6667 16.6667 20.4667 16.6667C21.2667 16.6667 21.8889 16.4444 22.3333 16C22.7778 15.5556 23.6222 15.3333 24.8667 15.3333C26.1111 15.3333 26.9889 15.5556 27.5 16C28.0111 16.4444 28.6222 16.6667 29.3333 16.6667V19.3333C28.0889 19.3333 27.2555 19.1111 26.8333 18.6667C26.4111 18.2222 25.8 18 25 18C24.2 18 23.5555 18.2222 23.0667 18.6667C22.5778 19.1111 21.7111 19.3333 20.4667 19.3333C19.2222 19.3333 18.3667 19.1111 17.9 18.6667C17.4333 18.2222 16.8 18 16 18ZM2.66666 13.3333V12C2.66666 9.44444 3.87243 7.47245 6.28399 6.084C8.69555 4.69556 11.9342 4.00089 16 4C20.0658 3.99911 23.3049 4.69378 25.7173 6.084C28.1298 7.47422 29.3351 9.44622 29.3333 12V13.3333H2.66666Z" fill="#7B7B7B"/>
</svg>
