<svg width="1680" height="528" viewBox="0 0 1680 528" fill="none" xmlns="http://www.w3.org/2000/svg">
<g clip-path="url(#clip0_30_679)">
<rect width="1680" height="527.731" rx="8" fill="#181818"/>
<path d="M101.704 390.704C138.655 353.752 193.705 341.821 252.905 352.486C312.103 363.151 375.4 396.406 428.741 449.747C482.082 503.088 515.337 566.385 526.002 625.583C536.667 684.783 524.736 739.833 487.784 776.784C450.833 813.736 395.783 825.667 336.583 815.002C277.385 804.337 214.088 771.082 160.747 717.741C107.406 664.4 74.1508 601.103 63.4862 541.905C52.8213 482.705 64.7523 427.655 101.704 390.704Z" stroke="white"/>
<path d="M133.704 358.704C170.655 321.752 225.705 309.821 284.905 320.486C344.103 331.151 407.4 364.406 460.741 417.747C514.082 471.088 547.337 534.385 558.002 593.583C568.667 652.783 556.736 707.833 519.784 744.784C482.833 781.736 427.783 793.667 368.583 783.002C309.385 772.337 246.088 739.082 192.747 685.741C139.406 632.4 106.151 569.103 95.4862 509.905C84.8213 450.705 96.7523 395.655 133.704 358.704Z" stroke="white"/>
<path d="M165.704 326.704C202.655 289.752 257.705 277.821 316.905 288.486C376.103 299.151 439.4 332.406 492.741 385.747C546.082 439.088 579.337 502.385 590.002 561.583C600.667 620.783 588.736 675.833 551.784 712.784C514.833 749.736 459.783 761.667 400.583 751.002C341.385 740.337 278.088 707.082 224.747 653.741C171.406 600.4 138.151 537.103 127.486 477.905C116.821 418.705 128.752 363.655 165.704 326.704Z" stroke="white"/>
<path d="M1159.7 -49.296C1196.66 -86.2476 1251.71 -98.1786 1310.91 -87.5137C1370.1 -76.8491 1433.4 -43.5938 1486.74 9.74737C1540.08 63.0885 1573.34 126.385 1584 185.583C1594.67 244.783 1582.74 299.833 1545.78 336.784C1508.83 373.736 1453.78 385.667 1394.58 375.002C1335.38 364.337 1272.09 331.082 1218.75 277.741C1165.41 224.4 1132.15 161.103 1121.49 101.905C1110.82 42.7054 1122.75 -12.3445 1159.7 -49.296Z" stroke="white"/>
<path d="M1191.7 -81.296C1228.66 -118.248 1283.71 -130.179 1342.91 -119.514C1402.1 -108.849 1465.4 -75.5938 1518.74 -22.2526C1572.08 31.0885 1605.34 94.3851 1616 153.583C1626.67 212.783 1614.74 267.833 1577.78 304.784C1540.83 341.736 1485.78 353.667 1426.58 343.002C1367.38 332.337 1304.09 299.082 1250.75 245.741C1197.41 192.4 1164.15 129.103 1153.49 69.9053C1142.82 10.7054 1154.75 -44.3445 1191.7 -81.296Z" stroke="white"/>
<path d="M1223.7 -113.296C1260.66 -150.248 1315.71 -162.179 1374.91 -151.514C1434.1 -140.849 1497.4 -107.594 1550.74 -54.2526C1604.08 -0.911514 1637.34 62.3851 1648 121.583C1658.67 180.783 1646.74 235.833 1609.78 272.784C1572.83 309.736 1517.78 321.667 1458.58 311.002C1399.38 300.337 1336.09 267.082 1282.75 213.741C1229.41 160.4 1196.15 97.1031 1185.49 37.9053C1174.82 -21.2946 1186.75 -76.3445 1223.7 -113.296Z" stroke="white"/>
<g filter="url(#filter0_f_30_679)">
<ellipse cx="140.33" cy="74.036" rx="140.33" ry="74.036" transform="matrix(0.767494 0.641056 0.641056 -0.767494 1074.77 212.644)" fill="#F8741B" fill-opacity="0.4"/>
</g>
<g filter="url(#filter1_f_30_679)">
<ellipse cx="137.426" cy="74.036" rx="137.426" ry="74.036" transform="matrix(0.767494 0.641056 0.641056 -0.767494 1051.51 290.311)" fill="#F37021"/>
</g>
<path d="M976 34L977.505 63.9289L1006.43 56.1115L978.435 66.7911L994.809 91.8885L976 68.56L957.191 91.8885L973.565 66.7911L945.566 56.1115L974.495 63.9289L976 34Z" fill="white"/>
<path d="M757.912 354.971L742.838 371.641L762.325 382.837L741.813 373.652L737.187 395.646L739.584 373.299L717.237 375.696L739.23 371.069L730.045 350.557L741.242 370.045L757.912 354.971Z" fill="white"/>
</g>
<defs>
<filter id="filter0_f_30_679" x="1009.05" y="36.2107" width="441.76" height="419.141" filterUnits="userSpaceOnUse" color-interpolation-filters="sRGB">
<feFlood flood-opacity="0" result="BackgroundImageFix"/>
<feBlend mode="normal" in="SourceGraphic" in2="BackgroundImageFix" result="shape"/>
<feGaussianBlur stdDeviation="51.5773" result="effect1_foregroundBlur_30_679"/>
</filter>
<filter id="filter1_f_30_679" x="985.603" y="113.587" width="437.687" height="416.001" filterUnits="userSpaceOnUse" color-interpolation-filters="sRGB">
<feFlood flood-opacity="0" result="BackgroundImageFix"/>
<feBlend mode="normal" in="SourceGraphic" in2="BackgroundImageFix" result="shape"/>
<feGaussianBlur stdDeviation="51.5773" result="effect1_foregroundBlur_30_679"/>
</filter>
<clipPath id="clip0_30_679">
<rect width="1680" height="527.731" rx="8" fill="white"/>
</clipPath>
</defs>
</svg>
