<svg width="32" height="32" viewBox="0 0 32 32" fill="none" xmlns="http://www.w3.org/2000/svg">
<g clip-path="url(#clip0_152_338)">
<path d="M0 0C10.56 0 21.12 0 32 0C32 10.56 32 21.12 32 32C21.44 32 10.88 32 0 32C0 21.44 0 10.88 0 0Z" fill="#7B7B7B"/>
<path d="M0 0C8.07253 0 16.1451 0 24.4622 0C24.1818 0.18694 23.8973 0.367949 23.6089 0.542222C23.0162 0.974364 22.7492 1.42193 22.6133 2.13333C22.592 2.50532 22.5769 2.8744 22.5683 3.24667C22.5639 3.40645 22.5639 3.40645 22.5594 3.56947C22.5501 3.90852 22.5417 4.24759 22.5333 4.58667C22.5272 4.81704 22.521 5.04741 22.5147 5.27778C22.4995 5.84147 22.4851 6.40517 22.4711 6.96889C22.342 6.9692 22.342 6.9692 22.2104 6.96952C20.1127 6.9748 18.0151 6.9832 15.9174 6.99504C14.903 7.0007 13.8886 7.00531 12.8741 7.00743C11.9895 7.00929 11.1049 7.01313 10.2203 7.01932C9.75232 7.02253 9.28436 7.02447 8.81634 7.02462C8.2927 7.02496 7.7692 7.02881 7.24559 7.03347C7.09194 7.03276 6.93828 7.03204 6.77997 7.0313C5.81628 7.04453 5.11222 7.21882 4.26667 7.68C4.11707 7.75627 3.96747 7.83253 3.81333 7.91111C3.12036 8.49629 2.58731 9.33994 2.41778 10.24C2.39927 10.6114 2.38767 10.979 2.38389 11.3506C2.38274 11.459 2.38159 11.5675 2.38041 11.6792C2.37845 11.9091 2.37692 12.139 2.3758 12.3689C2.37417 12.6007 2.37128 12.8325 2.36705 13.0643C2.32521 15.3599 2.68047 17.4168 4.30222 19.1644C5.57795 20.3483 7.22396 21.0586 8.96889 21.1111C11.2203 21.0189 12.3898 20.0906 13.9022 18.5244C14.1112 18.3082 14.3208 18.0926 14.5311 17.8778C14.6222 17.7834 14.7133 17.689 14.8071 17.5918C15.2399 17.2038 15.5225 17.069 16.1067 17.0578C17.0373 17.3215 17.5874 18.0048 18.2428 18.6883C19.5634 20.0577 20.5893 20.7989 22.4711 21.1911C22.4817 21.7857 22.4894 22.3803 22.4945 22.975C22.4967 23.1771 22.4996 23.3791 22.5033 23.5812C22.5085 23.8725 22.5109 24.1637 22.5128 24.455C22.5161 24.7175 22.5161 24.7175 22.5195 24.9854C22.4505 25.659 22.1902 26.0148 21.7333 26.4978C21.2144 26.8092 20.7787 26.8496 20.1956 26.7378C19.6728 26.4861 19.416 26.288 19.1111 25.7956C19.0422 25.1752 19.2402 24.8215 19.4883 24.2606C19.8123 23.4005 19.6913 22.5631 19.34 21.7294C19.12 21.3304 18.8331 21.0583 18.4889 20.7644C18.398 20.6852 18.307 20.606 18.2133 20.5244C17.4204 20.0199 16.562 19.9205 15.6444 20.0533C14.5879 20.4332 13.8606 21.1404 13.3156 22.1067C13.0619 23.1466 13.2837 24.0487 13.6533 25.0311C13.7003 25.078 13.7472 25.125 13.7956 25.1733C13.8513 25.4662 13.9041 25.7597 13.9556 26.0533C14.3024 27.7116 15.0292 29.4071 16.4422 30.4161C16.834 30.6718 17.2306 30.9126 17.6356 31.1467C17.7822 31.2317 17.9289 31.3168 18.08 31.4044C18.6291 31.6312 19.1865 31.7478 19.7689 31.8578C19.7689 31.9047 19.7689 31.9516 19.7689 32C13.2452 32 6.72142 32 0 32C0 21.44 0 10.88 0 0Z" fill="#FEFEFE"/>
<path d="M6.53446 8.7798C6.79406 8.77798 6.79406 8.77798 7.0589 8.77613C7.25027 8.77623 7.44163 8.77636 7.63299 8.77652C7.83486 8.77567 8.03673 8.7747 8.2386 8.77362C8.78663 8.77111 9.33466 8.77044 9.8827 8.77026C10.2252 8.77006 10.5677 8.76945 10.9102 8.7687C12.1054 8.76607 13.3005 8.76491 14.4957 8.76513C15.6093 8.7653 16.7228 8.7623 17.8364 8.75781C18.7929 8.75409 19.7494 8.75256 20.7059 8.75274C21.277 8.75282 21.848 8.75201 22.4191 8.74899C22.9564 8.74624 23.4935 8.74622 24.0308 8.74829C24.2276 8.74859 24.4245 8.74792 24.6214 8.74619C25.9935 8.73498 26.5806 8.82474 27.5677 9.77492C27.9397 10.337 27.9766 10.7721 27.965 11.4245C27.9653 11.5367 27.9657 11.6489 27.966 11.7646C27.9659 12.0012 27.964 12.2379 27.9605 12.4746C27.9556 12.8327 27.9575 13.1903 27.9603 13.5484C27.9589 15.401 27.6899 16.6529 26.3739 18.0339C25.877 18.4815 25.3571 18.7905 24.7467 19.0578C24.6402 19.1097 24.5336 19.1616 24.4239 19.2151C23.9167 19.3812 23.4345 19.3892 22.9067 19.3867C22.7594 19.3902 22.7594 19.3902 22.6092 19.3937C21.5423 19.3947 21.0002 19.0292 20.2622 18.3028C20.0256 18.0607 19.7901 17.8176 19.5556 17.5734C18.0613 15.9516 18.0613 15.9516 16.0267 15.3067C14.4512 15.3561 13.3955 16.5896 12.365 17.6567C12.291 17.7328 12.217 17.8089 12.1407 17.8873C11.9974 18.0355 11.8556 18.1851 11.7154 18.3362C11.0874 18.9888 10.4823 19.2961 9.58389 19.4039C7.79296 19.4058 6.73188 19.0786 5.43222 17.8278C4.0787 16.378 3.91049 14.6861 3.92889 12.7645C3.92724 12.59 3.92559 12.4154 3.92389 12.2356C3.92762 11.0856 3.9826 10.3053 4.75556 9.41339C5.35474 8.9019 5.74561 8.7823 6.53446 8.7798Z" fill="white"/>
<path d="M25.4578 0C27.6167 0 29.7757 0 32 0C32 10.56 32 21.12 32 32C28.6208 32 25.2416 32 21.76 32C22.2434 31.7583 22.7008 31.5823 23.2089 31.4044C24.096 31.0647 24.7663 30.6569 25.4578 30.0089C25.5467 29.9258 25.6356 29.8428 25.7272 29.7572C27.2638 28.1671 27.6397 26.0793 27.615 23.95C27.6158 23.6693 27.6168 23.3885 27.6181 23.1078C27.6187 22.6727 27.6178 22.2378 27.6131 21.8028C27.5883 19.0555 27.5883 19.0555 28.2128 18.2689C28.3822 18.1024 28.5538 17.9382 28.7289 17.7778C28.9766 17.3636 28.9766 17.3636 29.1378 16.9778C29.1932 16.8557 29.2485 16.7336 29.3056 16.6078C29.6936 15.4692 29.6232 14.2232 29.632 13.0333C29.6344 12.8015 29.6383 12.5697 29.6437 12.3379C29.6814 10.7156 29.6136 9.52412 28.4978 8.24889C28.1559 7.95022 28.1559 7.95022 27.7333 7.68C27.694 7.25989 27.6809 6.86793 27.6856 6.44778C27.6838 6.19463 27.6819 5.94148 27.68 5.68833C27.6795 5.2895 27.68 4.89071 27.6821 4.49188C27.6833 4.10673 27.6802 3.72179 27.6767 3.33667C27.6786 3.21899 27.6805 3.10132 27.6824 2.98008C27.6715 2.11317 27.4364 1.52239 26.88 0.853333C26.4196 0.49626 25.9797 0.260947 25.4578 0Z" fill="white"/>
<path d="M25.8844 20.48C25.8986 21.221 25.9089 21.9619 25.9157 22.7031C25.9185 22.9545 25.9224 23.206 25.9274 23.4574C25.9653 25.4285 25.8586 27.063 24.4622 28.5866C23.4009 29.663 22.2692 30.1637 20.7644 30.2044C19.3141 30.2117 18.0864 29.7373 17.0322 28.7339C16.5106 28.13 15.9289 27.4148 15.9289 26.5955C16.4634 26.4631 16.9441 26.3854 17.4933 26.4533C17.8066 26.7382 18.0017 27.0426 18.2333 27.3961C18.738 28.062 19.458 28.3655 20.2683 28.5066C21.2929 28.5581 22.2573 28.2905 23.0511 27.6294C24.2637 26.3531 24.2491 24.8392 24.2756 23.1733C24.2803 22.9667 24.2852 22.7602 24.2903 22.5536C24.3023 22.052 24.3118 21.5505 24.32 21.0489C24.554 20.9538 24.7881 20.859 25.0222 20.7644C25.1526 20.7116 25.2829 20.6588 25.4172 20.6044C25.7422 20.48 25.7422 20.48 25.8844 20.48Z" fill="white"/>
<path d="M25.4578 1.84894C25.6907 1.99884 25.6907 1.99884 25.8845 2.27561C25.9217 2.64364 25.9342 2.97662 25.9261 3.34394C25.9255 3.44751 25.9249 3.55108 25.9243 3.65779C25.9219 3.98823 25.9166 4.31854 25.9111 4.64894C25.909 4.87311 25.907 5.09727 25.9053 5.32144C25.9006 5.87066 25.8932 6.41978 25.8845 6.96894C25.3682 6.96894 24.8519 6.96894 24.32 6.96894C24.3095 6.30836 24.3017 5.64782 24.2966 4.98717C24.2944 4.76244 24.2915 4.53771 24.2878 4.313C24.2827 3.98997 24.2802 3.66701 24.2783 3.34394C24.2761 3.24348 24.2739 3.14302 24.2717 3.03952C24.2715 2.62441 24.2715 2.34495 24.5137 1.99884C24.8492 1.78295 25.0673 1.79036 25.4578 1.84894Z" fill="#FCFCFC"/>
<path d="M16.9244 21.76C17.4277 21.9949 17.6086 22.1463 17.92 22.6133C18.0252 23.2665 18.0067 23.7546 17.6533 24.32C17.154 24.79 16.7731 24.8021 16.1083 24.7978C15.5982 24.7167 15.3787 24.4335 15.0755 24.0356C14.8516 23.5877 14.8838 23.2505 14.9333 22.7556C15.4501 21.8879 15.9375 21.6931 16.9244 21.76Z" fill="white"/>
</g>
<defs>
<clipPath id="clip0_152_338">
<rect width="32" height="32" fill="white"/>
</clipPath>
</defs>
</svg>
