<svg width="1920" height="194" viewBox="0 0 1920 194" fill="none" xmlns="http://www.w3.org/2000/svg">
<mask id="mask0_1_381" style="mask-type:alpha" maskUnits="userSpaceOnUse" x="0" y="0" width="1920" height="194">
<rect x="0.5" y="0.5" width="1919" height="193" fill="#C4C4C4" stroke="#F37021"/>
</mask>
<g mask="url(#mask0_1_381)">
<path d="M1465.78 89.8579C1576.78 89.8579 1632.26 115.265 1687.79 140.692C1743.38 166.145 1799.01 191.617 1910.22 191.617C1993.55 191.617 2044.54 186.409 2088.83 179.9V194.401L1056.72 194.363C1145.02 189.402 1194.42 165.965 1243.77 142.542C1299.3 116.19 1354.77 89.8579 1465.78 89.8579ZM576.889 135.472C687.939 135.472 743.447 150.424 798.98 165.38C846.222 178.104 893.482 190.828 974.874 194.36L-43.5002 194.323V154.53C0.0088642 176.606 51.4381 194.04 132.444 194.04C243.615 194.04 299.217 179.387 354.794 164.74C410.328 150.103 465.838 135.472 576.889 135.472Z" fill="#181818" stroke="#181818"/>
<path opacity="0.5" d="M-44.0002 141.337C-0.416209 170.263 51.1224 193.151 132.444 193.151C354.666 193.151 354.666 116.835 576.889 116.835C799.11 116.835 799.11 194.823 1021.33 194.823C1243.56 194.823 1243.56 57.3989 1465.78 57.3989C1688 57.3989 1688 189.993 1910.22 189.993C1993.81 189.993 2044.96 183.165 2089.33 174.646" stroke="#181818"/>
<path d="M-44.0002 140.299C-0.421544 168.961 51.1358 191.639 132.444 191.639C354.666 191.639 354.666 106.854 576.889 106.854C799.11 106.853 799.11 193.823 1021.33 193.823C1243.56 193.823 1243.56 45.9629 1465.78 45.9629C1688 45.9629 1688 183.716 1910.22 183.716C1993.42 183.716 2045.09 174.182 2089.33 162.253" stroke="#181818"/>
<path opacity="0.5" d="M-44.0002 139.233C-0.416209 167.645 51.1238 190.129 132.444 190.129C354.666 190.129 354.666 96.9152 576.889 96.9152C799.11 96.9152 799.11 192.823 1021.33 192.823C1243.56 192.823 1243.56 34.5771 1465.78 34.5771C1688 34.5771 1688 177.463 1910.22 177.463C1993.83 177.463 2044.95 165.051 2089.33 149.566" stroke="#181818"/>
<path d="M-44.0002 138.867C-0.416209 167.189 51.1238 189.601 132.444 189.601C354.666 189.601 354.666 87.3981 576.889 87.3981C799.11 87.3981 799.11 192.823 1021.33 192.823C1243.56 192.823 1243.56 23.2461 1465.78 23.2461C1688 23.2461 1688 172.11 1910.22 172.11C1993.36 172.11 2045.11 157.007 2089.33 138.101" stroke="#181818" stroke-dasharray="10 10"/>
<path opacity="0.5" d="M-44.0002 137.785C-0.413544 165.866 51.1144 188.09 132.444 188.09C354.666 188.09 354.666 77.4432 576.889 77.4432C799.11 77.4432 799.11 191.823 1021.33 191.823C1243.56 191.823 1243.56 11.8232 1465.78 11.8232C1688 11.8232 1688 165.861 1910.22 165.861C1993.65 165.861 2045.01 147.881 2089.33 125.424" stroke="#181818"/>
</g>
</svg>
