<svg width="25" height="25" viewBox="0 0 25 25" fill="none" xmlns="http://www.w3.org/2000/svg">
<path d="M6.63766 24H17.1594M11.8985 24V18.8007M1.87834 7.7522H21.9187C22.4325 7.7522 22.543 7.7561 22.6149 7.76909C22.7757 7.79634 22.9228 7.85665 23.0395 7.94311C23.1561 8.02956 23.2375 8.13864 23.2742 8.25783C23.2918 8.30982 23.297 8.39301 23.297 8.77386V9.70194C23.297 10.9303 23.297 11.4814 23.2146 11.935C22.9375 13.4953 21.9735 14.9442 20.4722 16.057C18.9709 17.1698 17.0162 17.8843 14.9112 18.0897C14.2975 18.1495 13.5557 18.1508 11.8985 18.1508C10.2413 18.1508 9.49781 18.1508 8.88579 18.0897C6.78082 17.8843 4.82611 17.1698 3.32482 16.057C1.82353 14.9442 0.859564 13.4953 0.58242 11.935C0.5 11.4801 0.5 10.9303 0.5 9.70194V8.77386C0.5 8.39301 0.505261 8.31112 0.522797 8.25783C0.559555 8.13864 0.640924 8.02956 0.757558 7.94311C0.874192 7.85665 1.02136 7.79634 1.18216 7.76909C1.2523 7.7561 1.36453 7.7522 1.87834 7.7522Z" stroke="#7B7B7B" stroke-linecap="round"/>
<path d="M11.0568 12.1235C11.0079 12.2853 11.0444 12.4549 11.1587 12.5975C11.273 12.7401 11.4566 12.8449 11.6718 12.8905C11.887 12.936 12.1175 12.9188 12.3162 12.8424C12.5149 12.766 12.6666 12.6362 12.7403 12.4796L11.0568 12.1235ZM12.7421 12.4796L15.7758 4.60788L14.0906 4.25043L11.0568 12.1235L12.7421 12.4796ZM17.3295 3.33275L24.5001 1.20624L23.8477 0L16.6772 2.12521L17.3295 3.33275ZM15.7758 4.60788C16.0319 3.94497 16.1002 3.82279 16.2055 3.737L14.9025 2.86612C14.4624 3.22877 14.2993 3.7097 14.0906 4.25043L15.7758 4.60788ZM16.6772 2.12521C15.9722 2.33449 15.3444 2.50476 14.9025 2.86612L16.2055 3.737C16.3107 3.65121 16.465 3.58882 17.3278 3.33275L16.6772 2.12521Z" fill="#7B7B7B"/>
</svg>
